<?xml version="1.0" standalone="no"?>
<!DOCTYPE svg PUBLIC "-//W3C//DTD SVG 20010904//EN"
 "http://www.w3.org/TR/2001/REC-SVG-20010904/DTD/svg10.dtd">
<svg version="1.0" xmlns="http://www.w3.org/2000/svg"
 width="270.000000pt" height="270.000000pt" viewBox="0 0 270.000000 270.000000"
 preserveAspectRatio="xMidYMid meet">

<g transform="translate(0.000000,270.000000) scale(0.100000,-0.100000)"
fill="#000000" stroke="none">
<path d="M1223 2399 c-47 -30 -77 -98 -68 -155 8 -58 66 -120 120 -130 68 -12
144 26 181 91 9 17 15 17 75 6 263 -52 507 -247 620 -496 58 -128 73 -206 73
-365 -1 -117 -5 -161 -22 -224 -29 -104 -88 -224 -151 -307 -44 -59 -78 -92
-201 -198 -29 -25 -33 -33 -24 -48 18 -28 40 -27 88 7 157 107 303 318 356
513 95 346 -5 699 -266 947 -151 143 -289 210 -521 256 -12 2 -25 14 -28 27
-9 29 -43 65 -77 83 -40 21 -117 17 -155 -7z m136 -72 c35 -29 32 -94 -7 -123
-27 -21 -70 -16 -97 11 -68 67 29 172 104 112z"/>
<path d="M961 2211 c-13 -24 8 -55 34 -50 28 6 42 34 26 53 -18 22 -48 20 -60
-3z"/>
<path d="M770 2107 c-168 -132 -291 -318 -346 -522 -27 -100 -27 -370 0 -470
43 -158 118 -294 230 -413 150 -158 317 -251 526 -292 49 -9 57 -15 75 -47 29
-54 77 -83 138 -83 148 0 212 177 98 273 -76 63 -182 41 -242 -53 -16 -24 -17
-24 -80 -11 -321 66 -583 316 -671 640 -28 104 -31 314 -5 420 48 197 172 390
320 496 58 42 72 61 61 89 -10 27 -46 18 -104 -27z m680 -1617 c31 -31 27 -93
-6 -119 -37 -29 -70 -26 -106 9 -25 26 -29 36 -24 63 3 18 16 40 27 50 29 23
84 22 109 -3z"/>
<path d="M1212 2018 c-7 -7 -12 -31 -12 -54 0 -40 -2 -43 -37 -55 -21 -6 -54
-20 -74 -30 l-36 -18 -28 30 c-16 16 -36 29 -45 29 -20 0 -200 -180 -200 -201
0 -8 13 -28 29 -44 l30 -28 -18 -36 c-10 -20 -24 -53 -30 -73 -12 -36 -15 -38
-55 -38 -23 0 -47 -5 -54 -12 -17 -17 -17 -259 0 -276 7 -7 31 -12 54 -12 40
0 43 -2 55 -37 6 -21 20 -54 30 -74 l18 -36 -30 -28 c-16 -16 -29 -36 -29 -45
0 -20 180 -200 201 -200 8 0 28 13 44 29 l28 30 36 -18 c20 -10 53 -24 74 -30
35 -12 37 -15 37 -55 0 -23 5 -47 12 -54 13 -13 242 -18 272 -6 12 4 16 20 16
54 0 47 1 49 38 61 20 6 53 20 73 30 l36 18 28 -30 c16 -16 38 -29 49 -29 28
0 196 168 196 195 0 12 -13 34 -29 50 l-30 28 18 36 c10 20 24 53 30 74 12 36
14 37 61 37 34 0 50 4 54 16 8 20 8 248 0 268 -4 12 -20 16 -54 16 -47 0 -49
1 -61 38 -6 20 -20 53 -30 73 l-18 36 30 28 c16 16 29 38 29 49 0 28 -168 196
-195 196 -12 0 -34 -13 -49 -29 l-28 -29 -56 25 c-87 37 -86 37 -90 84 -2 24
-9 47 -15 51 -21 13 -262 9 -275 -4z m218 -107 c0 -44 8 -53 70 -70 25 -7 66
-24 92 -37 60 -30 66 -30 100 3 l29 27 56 -57 57 -56 -27 -29 c-33 -34 -33
-40 -3 -100 13 -26 30 -67 37 -92 17 -62 26 -70 70 -70 l39 0 0 -80 0 -80 -39
0 c-44 0 -53 -8 -70 -70 -7 -25 -24 -66 -37 -92 -30 -60 -30 -66 3 -100 l27
-29 -57 -56 -56 -57 -29 27 c-35 33 -48 34 -103 3 -24 -13 -64 -30 -89 -37
-62 -17 -70 -26 -70 -70 l0 -39 -80 0 -80 0 0 39 c0 44 -8 53 -70 70 -25 7
-65 24 -89 37 -55 31 -68 30 -103 -3 l-29 -27 -56 57 -57 56 27 29 c33 35 34
48 3 103 -13 24 -30 64 -37 89 -17 62 -26 70 -70 70 l-39 0 0 80 0 80 39 0
c44 0 53 8 70 70 7 25 24 65 37 89 31 55 30 68 -3 103 l-27 29 57 56 56 57 29
-27 c34 -33 40 -33 100 -3 26 13 67 30 92 37 62 17 70 26 70 70 l0 39 80 0 80
0 0 -39z"/>
<path d="M1253 1642 c-265 -95 -283 -457 -28 -574 71 -32 191 -32 255 1 61 31
117 86 148 146 36 69 38 186 4 261 -63 141 -237 217 -379 166z m174 -73 c135
-50 192 -201 125 -330 -37 -71 -100 -111 -182 -117 -73 -5 -122 11 -173 57
-156 141 -59 400 150 401 28 0 64 -5 80 -11z"/>
<path d="M1681 521 c-13 -24 8 -55 34 -50 28 6 42 34 26 53 -18 22 -48 20 -60
-3z"/>
</g>
</svg>
