<svg height="512" viewBox="0 0 64 64" width="512" xmlns="http://www.w3.org/2000/svg"><g id="Creative_campaigns" data-name="Creative campaigns"><rect fill="#57a4ff" height="34" rx="4" width="54" x="5" y="19"/><path d="m9 23h46v26h-46z" fill="#ffdaaa"/><path d="m32 49h23v-18c0 9.949-10.287 18-23 18z" fill="#ffc477"/><path d="m7 61h50a4 4 0 0 0 4-4v-4h-58v4a4 4 0 0 0 4 4z" fill="#005ece"/><path d="m55 19h-2a4 4 0 0 1 4 4v26a4 4 0 0 1 -4 4h2a4 4 0 0 0 4-4v-26a4 4 0 0 0 -4-4z" fill="#2488ff"/><path d="m59 53v4a4 4 0 0 1 -4 4h2a4 4 0 0 0 4-4v-4z" fill="#004fac"/><path d="m13 39h38v6h-38z" fill="#ffb655"/><path d="m29 57h6a2 2 0 0 0 2-2v-2h-10v2a2 2 0 0 0 2 2z" fill="#ffcd00"/><path d="m27 35h2 3 3 2v-4h-2-3-3-2z" fill="#006df0"/><path d="m29 42 3 4 3-4-3-2z" fill="#d1d3d4"/><path d="m32 35h-3v7l3-2z" fill="#f15a29"/><path d="m32 40 3 2v-7h-3z" fill="#ff9811"/><path d="m3 3h14v12h-14z" fill="#ed1c24"/><path d="m8 12 5-3-5-3z" fill="#f1f2f2"/><path d="m59 3h-10a2 2 0 0 0 -2 2v5a2 2 0 0 0 2 2h1v4l4-4h5a2 2 0 0 0 2-2v-5a2 2 0 0 0 -2-2z" fill="#7ed63e"/><path d="m22 19a9.931 9.931 0 0 0 .849 4 10.043 10.043 0 0 0 4.972 5.084 2 2 0 0 1 1.179 1.816v1.1h3v-22a10 10 0 0 0 -10 10z" fill="#ebbf00"/><path d="m41.929 17.8a10.047 10.047 0 0 0 -8.788-8.733 10.494 10.494 0 0 0 -1.141-.067v22h3v-1.1a2 2 0 0 1 1.176-1.815 10.031 10.031 0 0 0 5.753-10.285z" fill="#ffcd00"/><path d="m61 52h-2.026a4.948 4.948 0 0 0 1.026-3v-26a5.006 5.006 0 0 0 -5-5h-12.053c-.009-.107-.012-.213-.025-.32a11 11 0 0 0 -21.869.32h-12.053a5.006 5.006 0 0 0 -5 5v26a4.948 4.948 0 0 0 1.026 3h-2.026a1 1 0 0 0 -1 1v4a5.006 5.006 0 0 0 5 5h50a5.006 5.006 0 0 0 5-5v-4a1 1 0 0 0 -1-1zm-33.6-23.008a1 1 0 0 1 .6.907v.101h-1a1 1 0 0 0 -1 1v4a1 1 0 0 0 1 1h1v6a1 1 0 0 0 .2.6l3 4a1 1 0 0 0 1.6 0l3-4a1 1 0 0 0 .2-.6v-6h1a1 1 0 0 0 1-1v-4a1 1 0 0 0 -1-1h-1v-.1a1 1 0 0 1 .595-.906 10.978 10.978 0 0 0 5.191-4.994h12.214v24h-44v-24h12.217a11.034 11.034 0 0 0 5.183 4.992zm8.6 3.008v2h-8v-2zm-5 7.465-1 .667v-4.132h1zm1 1.735 1.566 1.044-1.566 2.089-1.566-2.087zm2-1.07-1-.667v-3.463h1zm-8-27.837a8.924 8.924 0 0 1 7.03-2.235 8.981 8.981 0 0 1 7.213 12.53c-.008.017-.014.033-.021.051a8.988 8.988 0 0 1 -4.466 4.538 3.016 3.016 0 0 0 -1.756 2.723v.1h-1v-11a1 1 0 1 1 1.5.867 1 1 0 0 0 1 1.731 3 3 0 0 0 -1.5-5.598 2.981 2.981 0 0 0 -2 .78 2.987 2.987 0 0 0 -5 2.22 3.013 3.013 0 0 0 1.5 2.6 1 1 0 0 0 1-1.731 1 1 0 1 1 1.5-.869v11h-1v-.1a3.018 3.018 0 0 0 -1.76-2.723 9.028 9.028 0 0 1 -4.468-4.564 8.944 8.944 0 0 1 2.228-10.32zm-20 36.707v-26a3 3 0 0 1 3-3h12.051a10.975 10.975 0 0 0 .373 2h-12.424a1 1 0 0 0 -1 1v26a1 1 0 0 0 1 1h46a1 1 0 0 0 1-1v-26a1 1 0 0 0 -1-1h-12.42a11.119 11.119 0 0 0 .364-2h12.056a3 3 0 0 1 3 3v26a3 3 0 0 1 -3 3h-46a3 3 0 0 1 -3-3zm22 5h8v1a1 1 0 0 1 -1 1h-6a1 1 0 0 1 -1-1zm32 3a3 3 0 0 1 -3 3h-50a3 3 0 0 1 -3-3v-3h22v1a3 3 0 0 0 3 3h6a3 3 0 0 0 3-3v-1h22z"/><path d="m32 6a1 1 0 0 0 1-1v-2a1 1 0 0 0 -2 0v2a1 1 0 0 0 1 1z"/><path d="m21.394 9.808a1 1 0 0 0 1.414-1.414l-1.414-1.415a1 1 0 0 0 -1.415 1.415z"/><path d="m20.687 31.313a1 1 0 0 0 .707-.292l1.414-1.415a1 1 0 0 0 -1.414-1.414l-1.415 1.414a1 1 0 0 0 .708 1.707z"/><path d="m42.606 31.021a1 1 0 1 0 1.415-1.415l-1.415-1.414a1 1 0 0 0 -1.414 1.414z"/><path d="m41.9 10.1a1 1 0 0 0 .707-.293l1.415-1.414a1 1 0 1 0 -1.415-1.415l-1.415 1.416a1 1 0 0 0 .708 1.706z"/><path d="m3 16h14a1 1 0 0 0 1-1v-12a1 1 0 0 0 -1-1h-14a1 1 0 0 0 -1 1v12a1 1 0 0 0 1 1zm1-12h12v10h-12z"/><path d="m13.515 8.143-5-3a1 1 0 0 0 -1.515.857v6a1 1 0 0 0 1.515.857l5-3a1 1 0 0 0 0-1.714zm-4.515 2.091v-2.468l2.056 1.234z"/><path d="m59 2h-10a3 3 0 0 0 -3 3v5a3 3 0 0 0 3 3v3a1 1 0 0 0 1.707.707l3.707-3.707h4.586a3 3 0 0 0 3-3v-5a3 3 0 0 0 -3-3zm1 8a1 1 0 0 1 -1 1h-5a1 1 0 0 0 -.707.293l-2.293 2.293v-1.586a1 1 0 0 0 -1-1h-1a1 1 0 0 1 -1-1v-5a1 1 0 0 1 1-1h10a1 1 0 0 1 1 1z"/><path d="m58 5h-8a1 1 0 0 0 0 2h8a1 1 0 0 0 0-2z"/><path d="m58 8h-8a1 1 0 0 0 0 2h8a1 1 0 0 0 0-2z"/><path d="m38 46h13a1 1 0 0 0 1-1v-6a1 1 0 0 0 -1-1h-12a1 1 0 0 0 0 2h11v4h-12a1 1 0 0 0 0 2z"/><path d="m13 46h13a1 1 0 0 0 0-2h-12v-4h11a1 1 0 0 0 0-2h-12a1 1 0 0 0 -1 1v6a1 1 0 0 0 1 1z"/></g></svg>