<svg id="Layer_3" height="512" viewBox="0 0 64 64" width="512" xmlns="http://www.w3.org/2000/svg" data-name="Layer 3"><path d="m35 21v7a12 12 0 0 1 -12 12 12 12 0 0 1 -12-12v-7h9a7.954 7.954 0 0 0 7.385-5 7.956 7.956 0 0 0 5.19 4.692z" fill="#fddfb1"/><path d="m33.686 7.919a10.3 10.3 0 0 0 -5.986-1.919h-9.4a10.3 10.3 0 0 0 -10.3 10.3v.267a10.291 10.291 0 0 0 1.088 4.607l1.912 3.826v-4h9a7.954 7.954 0 0 0 7.385-5 7.954 7.954 0 0 0 7.385 5h.23v4l1.912-3.825a10.291 10.291 0 0 0 1.088-4.607v-.268a10.3 10.3 0 0 0 -4.314-8.381z" fill="#474747"/><path d="m27.385 16a7.954 7.954 0 0 1 -7.385 5h-9v7a11.928 11.928 0 0 0 2.267 7h11.733a5 5 0 0 0 5-5v-10.6a7.943 7.943 0 0 1 -2.615-3.4z" fill="#fde5c1"/><path d="m37 24h-2v4a11.966 11.966 0 0 1 -.7 4h2.7a3 3 0 0 0 3-3v-2a3 3 0 0 0 -3-3z" fill="#2763bb"/><path d="m62 17a15 15 0 1 0 -19 14.444v4.556l5.467-4.074a15 15 0 0 0 13.533-14.926z" fill="#f3a845"/><path d="m47 2a14.985 14.985 0 0 0 -11.985 24h16.985a5 5 0 0 0 5-5v-15.158a14.927 14.927 0 0 0 -10-3.842z" fill="#eecc61"/><rect fill="#fce79c" height="12" rx="3" width="14" x="38" y="9"/><path d="m11 28v-3h-1a3 3 0 0 0 0 6h1.393a12.017 12.017 0 0 1 -.393-3z" fill="#fddfb1"/><path d="m23 47 5-5v-3.1a11.894 11.894 0 0 1 -10 0v3.1l-.116.036z" fill="#fddfb1"/><path d="m39.088 45.465-11.088-3.465-5 5-5.116-4.964-10.972 3.429a7 7 0 0 0 -4.912 6.681v9.854h42v-9.854a7 7 0 0 0 -4.912-6.681z" fill="#f2f2f2"/><path d="m34 62a3 3 0 0 0 3-3v-14.188l-9-2.812-5 5-5.116-4.964-10.972 3.429a7 7 0 0 0 -4.912 6.681v9.854z" fill="#fff"/><path d="m27 50 4.732-6.834-3.732-1.166-5 5z" fill="#ccc"/><path d="m19 50 4-3-5.116-4.964-3.859 1.206z" fill="#ccc"/><path d="m23 47-2.909 2.182 1.909 3.818h2l1.909-3.818z" fill="#aa2b24"/><path d="m24 53h-2l-2 9h6z" fill="#d24034"/><path d="m8 54h2v8h-2z" fill="#e0e0e0"/><rect fill="#2763bb" height="4" rx="2" width="6" x="20" y="33"/><path d="m24 33h-2a1.988 1.988 0 0 0 -1.723 3h2.723a2 2 0 0 0 2-2v-.723a1.987 1.987 0 0 0 -1-.277z" fill="#3079e6"/><path d="m49 19h-4l-1-12h6z" fill="#fff"/><circle cx="47" cy="25" fill="#fff" r="2"/><path d="m16 24h2v4h-2z"/><path d="m28 24h2v4h-2z"/><path d="m29 54h5v2h-5z"/><path d="m47 1a15.966 15.966 0 0 0 -12.616 6.2c-.04-.029-.077-.062-.116-.091a11.241 11.241 0 0 0 -6.568-2.109h-9.4a11.3 11.3 0 0 0 -11.3 11.3v.267a11.36 11.36 0 0 0 1.193 5.054l1.219 2.439a3.991 3.991 0 0 0 .588 7.94h.636a13.058 13.058 0 0 0 6.364 7.521v1.744l-10.386 3.245a7.966 7.966 0 0 0 -5.614 7.636v9.854a1 1 0 0 0 1 1h42a1 1 0 0 0 1-1v-9.854a7.966 7.966 0 0 0 -5.614-7.636l-10.386-3.245v-1.744a13.078 13.078 0 0 0 4.226-3.521h1.774a3 3 0 0 0 3-3v-.135a3.973 3.973 0 0 0 2.162-1.427 15.816 15.816 0 0 0 1.838.748v3.814a1 1 0 0 0 1.6.8l5.247-3.91a16 16 0 0 0 -1.847-31.89zm-38 15.3a9.3 9.3 0 0 1 9.3-9.3h9.4a9.243 9.243 0 0 1 5.4 1.733c.052.037.1.086.147.124a15.557 15.557 0 0 0 -2.117 10.109 6.9 6.9 0 0 1 -2.822-3.338 1 1 0 0 0 -1.857 0 6.92 6.92 0 0 1 -6.451 4.372h-9a.986.986 0 0 0 -.966.831l-.052-.1a9.347 9.347 0 0 1 -.982-4.163zm1 13.7a2 2 0 0 1 0-4v2a13.056 13.056 0 0 0 .17 2zm7.721 13.135 3.757 3.757-2.259 1.694-3.457-4.839zm5.079 10.865h.4l1.555 7h-3.508zm.58-2h-.764l-1.26-2.519 1.644-1.231 1.642 1.231zm-20.38.146a5.976 5.976 0 0 1 4.21-5.727l6.543-2.044 4.434 6.206a1 1 0 0 0 .66.407.986.986 0 0 0 .153.012 1 1 0 0 0 .6-.2l.132-.1 1.215 2.429-1.747 7.871h-9.2v-7h-2v7h-5zm40 0v8.854h-5v-7h-2v7h-9.2l-1.749-7.871 1.217-2.429.132.1a1 1 0 0 0 .6.2.986.986 0 0 0 .153-.012 1 1 0 0 0 .66-.407l4.434-6.206 6.543 2.044a5.976 5.976 0 0 1 4.21 5.727zm-12.762-8.4-3.457 4.839-2.259-1.694 3.757-3.757zm-3.238-2.16-4 4-4-4v-1.222a12.9 12.9 0 0 0 8 0zm-4-2.586a11.013 11.013 0 0 1 -11-11v-6h8a8.9 8.9 0 0 0 7.385-3.885 8.869 8.869 0 0 0 4.259 3.319 16.049 16.049 0 0 0 2.356 4.86v1.706a10.929 10.929 0 0 1 -1.792 6h-5.392a3 3 0 0 0 -2.816-2h-2a3 3 0 0 0 0 6h2a3 3 0 0 0 2.816-2h3.71a10.948 10.948 0 0 1 -7.526 3zm2-4a1 1 0 0 1 -1 1h-2a1 1 0 0 1 0-2h2a1 1 0 0 1 1 1zm10-1h-.479c.171-.327.333-.658.476-1h1a1 1 0 0 1 -.997 1zm2-3h-1.363a13.032 13.032 0 0 0 .335-2.445 16.061 16.061 0 0 0 2.387 1.886 1.978 1.978 0 0 1 -1.359.559zm11.37-.069a1 1 0 0 0 -.5.193l-3.87 2.883v-2.563a1 1 0 0 0 -.733-.964 13.972 13.972 0 1 1 5.1.451z"/><path d="m50 6h-6a1 1 0 0 0 -1 1.083l1 12a1 1 0 0 0 1 .917h4a1 1 0 0 0 1-.917l1-12a1 1 0 0 0 -1-1.083zm-1.92 12h-2.16l-.833-10h3.826z"/><path d="m47 22a3 3 0 1 0 3 3 3 3 0 0 0 -3-3zm0 4a1 1 0 1 1 1-1 1 1 0 0 1 -1 1z"/></svg>