<svg height="512" viewBox="0 0 64 64" width="512" xmlns="http://www.w3.org/2000/svg"><g id="Page_speed" data-name="Page speed"><path d="m3 13h58a0 0 0 0 1 0 0v40a2 2 0 0 1 -2 2h-54a2 2 0 0 1 -2-2v-40a0 0 0 0 1 0 0z" fill="#ffdaaa"/><path d="m25 55h34a2 2 0 0 0 2-2v-34a36 36 0 0 1 -36 36z" fill="#ffc477"/><path d="m53 40a21 21 0 1 0 -35.85 14.85l4.25-4.25a15 15 0 1 1 21.2 0l4.25 4.25a20.934 20.934 0 0 0 6.15-14.85z" fill="#2488ff"/><path d="m44 40a12.135 12.135 0 0 1 -5.36 10h-13.27a11.992 11.992 0 0 1 -3.76-16 12.155 12.155 0 0 1 4.39-4.39 11.985 11.985 0 0 1 12 0 12.155 12.155 0 0 1 4.39 4.39 11.961 11.961 0 0 1 1.61 6z" fill="#ffcd00"/><path d="m61 5v8h-58v-8a2.006 2.006 0 0 1 2-2h54a2.006 2.006 0 0 1 2 2z" fill="#005ece"/><path d="m55 6h-28a2 2 0 0 0 0 4h28a2 2 0 0 0 0-4z" fill="#ffcd00"/><g fill="#57a4ff"><circle cx="8" cy="8" r="1"/><circle cx="14" cy="8" r="1"/><circle cx="20" cy="8" r="1"/></g><path d="m32 46a2 2 0 0 0 2-2c0-1.1-2-9-2-9s-2 7.9-2 9a2 2 0 0 0 2 2z" fill="#ed1c24"/><path d="m21 55h22v6h-22z" fill="#ed1c24"/><path d="m55 5h-28a3 3 0 0 0 0 6h28a3 3 0 0 0 0-6zm0 4h-28a1 1 0 0 1 0-2h28a1 1 0 0 1 0 2z"/><circle cx="8" cy="8" r="2"/><circle cx="14" cy="8" r="2"/><circle cx="20" cy="8" r="2"/><path d="m59 2h-54a3 3 0 0 0 -3 3v48a3 3 0 0 0 3 3h7a1 1 0 0 0 1-1 1 1 0 0 0 -1-1h-7a1 1 0 0 1 -1-1v-39h56v39a1 1 0 0 1 -1 1h-7a1 1 0 0 0 -1 1 1 1 0 0 0 1 1h7a3 3 0 0 0 3-3v-48a3 3 0 0 0 -3-3zm1 10h-56v-7a1 1 0 0 1 1-1h54a1 1 0 0 1 1 1z"/><path d="m25.37 51h13.27a.671.671 0 0 0 .154-.018.99.99 0 0 0 .4-.149 13.006 13.006 0 1 0 -14.375 0 1 1 0 0 0 .55.166zm-2.361-4.654 1.7-.98a1 1 0 0 0 -1-1.732l-1.68.969a10.941 10.941 0 0 1 -.964-3.6h1.935a1 1 0 0 0 0-2h-1.949a10.9 10.9 0 0 1 .973-3.6l1.682.971a1 1 0 1 0 1-1.732l-1.682-.971a11.1 11.1 0 0 1 2.639-2.639l.971 1.682a1 1 0 0 0 1.732-1l-.966-1.69a10.9 10.9 0 0 1 3.6-.973v1.949a1 1 0 0 0 2 0v-1.949a10.9 10.9 0 0 1 3.6.973l-.971 1.682a1 1 0 1 0 1.732 1l.971-1.682a11.1 11.1 0 0 1 2.639 2.639l-1.682.971a1 1 0 1 0 1 1.732l1.682-.971a10.9 10.9 0 0 1 .973 3.6h-1.944a1 1 0 0 0 0 2h1.938a10.952 10.952 0 0 1 -.966 3.6l-1.678-.968a1 1 0 0 0 -1 1.732l1.7.979a11.038 11.038 0 0 1 -2.687 2.662h-12.607a10.958 10.958 0 0 1 -2.691-2.654z"/><path d="m32 47a3 3 0 0 0 3-3c0-1.141-1.554-7.365-2.031-9.246a1 1 0 0 0 -1.938 0c-.477 1.881-2.031 8.105-2.031 9.246a3 3 0 0 0 3 3zm0-7.8a48.664 48.664 0 0 1 1 4.8 1 1 0 0 1 -2 0 48.664 48.664 0 0 1 1-4.8z"/><path d="m43 54h-22a1 1 0 0 0 -1 1v6a1 1 0 0 0 1 1h22a1 1 0 0 0 1-1v-6a1 1 0 0 0 -1-1zm-1 6h-20v-4h20z"/><path d="m32 18a22 22 0 0 0 -15.557 37.557 1 1 0 0 0 1.414 0l4.25-4.25a1 1 0 0 0 0-1.414 14 14 0 1 1 19.786 0 1 1 0 0 0 0 1.414l4.25 4.25a1 1 0 0 0 1.414 0 22 22 0 0 0 -15.557-37.557zm14.833 35.418-2.84-2.839a16 16 0 1 0 -23.986 0l-2.84 2.839a20 20 0 1 1 29.666 0z"/></g></svg>