<svg id="Capa_1" enable-background="new 0 0 512 512" height="512" viewBox="0 0 512 512" width="512" xmlns="http://www.w3.org/2000/svg"><g><g><path clip-rule="evenodd" d="m56.215 369.703c-28.323 10.294-48.632 37.07-48.632 68.234 0 24.92 12.926 46.971 32.575 60.106 20.596 13.782 16.603-7.988 16.603-11.644v-43.68c0-15.273 12.237-27.901 27.576-28.914 15.368 1.013 27.605 13.641 27.605 28.914v43.68c0 3.656-3.993 25.426 16.603 11.644 19.619-13.107 32.575-35.186 32.575-60.106 0-31.164-20.309-57.94-48.632-68.234v-227.428c28.323-10.294 48.632-37.042 48.632-68.234 0-24.892-12.955-46.971-32.575-60.106-20.596-13.754-16.603 8.016-16.603 11.672v43.68c0 15.273-12.237 27.873-27.605 28.886-15.339-1.013-27.576-13.613-27.576-28.886v-43.68c0-3.656 3.993-25.426-16.603-11.672-19.648 13.135-32.575 35.214-32.575 60.106 0 31.192 20.309 57.94 48.632 68.234z" fill="#c1eaf4" fill-rule="evenodd"/></g><g><path clip-rule="evenodd" d="m220.036 15.397v26.129l35.964 12.207 35.935-12.207v-26.129c0-3.263-2.7-5.935-6.032-5.963h-.057-59.72-.057c-3.333.029-6.033 2.701-6.033 5.963z" fill="#99cfe0" fill-rule="evenodd"/></g><g><path clip-rule="evenodd" d="m220.036 75.362c0 9.957 6.205 18.591 14.995 22.36v174.439l21.314 15.751 20.596-15.751v-174.438c8.819-3.769 14.995-12.404 14.995-22.36v-33.836h-71.899v33.835z" fill="#c1eaf4" fill-rule="evenodd"/></g><g><path clip-rule="evenodd" d="m389.803 168.235v219.891c-18.987 10.491-31.828 30.404-31.828 53.299 0 33.751 27.95 61.146 62.449 61.146s62.449-27.395 62.449-61.146c0-22.895-12.811-42.808-31.799-53.299v-219.891c31.224-11.982 53.343-41.739 53.343-76.588 0-45.339-37.487-82.1-83.763-82.213h-.23-.23c-46.277.112-83.734 36.873-83.734 82.213 0 34.849 22.089 64.606 53.343 76.588zm51.935-40.445-19.418 10.969c-2.269 1.266-1.522 1.266-3.792 0l-19.418-10.969-19.39-10.969c-2.269-1.294-1.896-.675-1.896-3.235v-21.938-21.939c0-2.56-.373-1.941 1.896-3.206l19.39-10.969 19.418-10.969c2.269-1.294 1.522-1.294 3.792 0l19.418 10.969 19.39 10.969c2.269 1.266 1.925.647 1.925 3.206v21.938 21.938c0 2.56.345 1.941-1.925 3.235zm-44.61 313.635c0-12.601 10.427-22.81 23.296-22.81s23.296 10.21 23.296 22.81c0 12.572-10.427 22.81-23.296 22.81s-23.296-10.238-23.296-22.81z" fill="#c1eaf4" fill-rule="evenodd"/></g><g><path clip-rule="evenodd" d="m126.88 54.183c0 28.52-8.503 53.327-31.598 65.225-9.537 4.95-6.894 6.553-6.894 18.591v231.563c0 7.369-1.408 9.169 4.797 12.038 24.675 11.475 33.695 36.902 33.695 66.265 0 16.51-5.688 31.783-15.253 44.046-.115 7.003 1.637 16.369 16.919 6.132 19.619-13.107 32.575-35.186 32.575-60.106 0-31.164-20.309-57.94-48.632-68.234v-227.428c28.323-10.294 48.632-37.042 48.632-68.234 0-24.892-12.955-46.971-32.575-60.106-9.278-6.188-13.558-5.175-15.483-1.856 8.704 11.897 13.817 26.438 13.817 42.104z" fill="#99cfe0" fill-rule="evenodd"/></g><g><path clip-rule="evenodd" d="m205.099 299.387v16.735l49.264 16.679 52.539-16.679v-16.735-15.751c0-6.328-5.285-11.475-11.72-11.475h-18.241-41.91-18.212c-6.463 0-11.72 5.147-11.72 11.475z" fill="#fdb440" fill-rule="evenodd"/></g><g><path clip-rule="evenodd" d="m206.075 469.157 9.02 28.182c.89 2.728 2.413 5.231 5.343 5.231h71.095c2.959 0 4.452-2.475 5.343-5.231l9.02-28.182c.661-2.025.919-3.656 1.034-5.288l-51.993-22.445-49.867 22.445c.086 1.632.345 3.263 1.005 5.288z" fill="#fdb440" fill-rule="evenodd"/></g><g><path clip-rule="evenodd" d="m271.914 15.397v26.129h20.022v-26.129c0-3.263-2.7-5.935-6.032-5.963h-.057-19.964c3.331.029 6.031 2.701 6.031 5.963z" fill="#7ca2b1" fill-rule="evenodd"/></g><g><path clip-rule="evenodd" d="m271.914 75.362c0 9.957-6.176 18.591-14.995 22.36v174.439h18.241 1.781v-174.438c8.819-3.769 14.995-12.404 14.995-22.36v-33.836h-20.022v6.778z" fill="#99cfe0" fill-rule="evenodd"/></g><g><path clip-rule="evenodd" d="m286.88 283.637v15.751 16.735h20.022v-16.735-15.751c0-6.328-5.285-11.475-11.72-11.475h-18.241-1.781c.546 0 1.092.028 1.637.113 5.688.786 10.083 5.596 10.083 11.362z" fill="#fe9737" fill-rule="evenodd"/></g><g><path clip-rule="evenodd" d="m285.903 469.157-9.048 28.182c-.862 2.756-2.384 5.231-5.314 5.231h19.993c2.959 0 4.452-2.475 5.343-5.231l9.02-28.182c.661-2.025.919-3.656 1.034-5.288h-20.022c-.115 1.632-.374 3.263-1.006 5.288z" fill="#fe9737" fill-rule="evenodd"/></g><g><path clip-rule="evenodd" d="m432.804 161.85v223.322c0 6.835-.919 4.669 4.912 7.51 42.14 20.616 40.388 101.395-35.533 101.395-6.004 0-11.806-.844-17.321-2.391 10.111 6.863 22.348 10.885 35.562 10.885 34.499 0 62.449-27.395 62.449-61.146 0-22.895-12.811-42.808-31.799-53.299v-219.891c31.224-11.982 53.343-41.739 53.343-76.588 0-36.283-24.043-67.109-57.364-77.994 23.497 14.569 39.095 40.249 39.095 69.5 0 34.426-21.573 63.875-52.194 76.138-1.293.534-1.15 1.209-1.15 2.559z" fill="#99cfe0" fill-rule="evenodd"/></g><g><path clip-rule="evenodd" d="m205.099 316.123v141.109c0 2.644-.144 4.613-.029 6.638h101.86c.115-2.025-.029-3.994-.029-6.638v-141.109z" fill="#fe636e" fill-rule="evenodd"/></g><g><path clip-rule="evenodd" d="m286.88 322.479v132.727 2.025c0 2.644.144 4.613.029 6.638h20.022c.115-2.025-.029-3.994-.029-6.638v-141.108h-20.022z" fill="#f93e55" fill-rule="evenodd"/></g><g><path d="m109.855 135.296c-2.975 1.081-4.95 3.865-4.95 6.979v94.195c0 4.11 3.395 7.442 7.583 7.442s7.583-3.332 7.583-7.442v-89.198c29.298-12.841 48.632-41.637 48.632-73.23 0-26.442-13.414-51.21-35.891-66.258-3.284-2.193-13.275-8.866-21.611-4.14-8.156 4.625-6.452 12.608-6.924 20.797-.029.496.081 44.848.081 44.848 0 11.109-8.754 20.423-20.022 21.421-11.251-1-19.991-10.314-19.991-21.423 0 0 .11-44.352.081-44.848-.426-7.314 1.232-16.171-6.924-20.797-8.333-4.724-18.328 1.948-21.614 4.143-22.472 15.023-35.888 39.791-35.888 66.256 0 31.593 19.334 60.389 48.632 73.23v217.435c-29.298 12.842-48.632 41.638-48.632 73.231 0 26.465 13.416 51.234 35.885 66.254 3.285 2.198 13.284 8.888 21.617 4.163 8.156-4.62 6.748-10.417 6.924-20.788.008-.497-.075-.905-.081-1.168v-43.68c0-11.124 8.741-20.45 19.993-21.449 11.268.999 20.021 10.325 20.021 21.449 0 0-.102 44.352-.081 44.849.347 8.308-1.232 16.168 6.924 20.788 2.091 1.185 4.284 1.651 6.452 1.651 6.474-.001 12.702-4.167 15.16-5.812 22.473-15.013 35.89-39.782 35.89-66.257 0-31.593-19.334-60.389-48.632-73.23v-93.895c0-4.11-3.395-7.442-7.583-7.442s-7.583 3.332-7.583 7.442v98.892c0 3.113 1.975 5.897 4.95 6.979 26.127 9.496 43.682 34.113 43.682 61.255 0 21.545-10.938 41.715-29.263 53.957-2.296 1.537-3.915 2.343-4.972 2.765l.224-51.941c0-19.095-15.234-35.057-34.681-36.338-.338-.022-.677-.022-1.017 0-19.43 1.282-34.65 17.245-34.65 36.338l.224 51.94c-1.057-.422-2.677-1.229-4.975-2.766-18.322-12.249-29.26-32.419-29.26-53.956 0-27.143 17.554-51.759 43.682-61.255 2.975-1.081 4.95-3.865 4.95-6.979v-227.429c0-3.113-1.975-5.897-4.95-6.979-26.127-9.496-43.682-34.113-43.682-61.255 0-21.537 10.939-41.707 29.257-53.953 2.301-1.537 3.92-2.34 4.976-2.76.135 1.344-.222 51.959-.222 51.959 0 19.078 15.22 35.028 34.65 36.31.339.022.678.022 1.017 0 19.448-1.281 34.681-17.23 34.681-36.31 0 0-.357-50.615-.222-51.959 1.055.419 2.672 1.221 4.969 2.754 18.325 12.269 29.264 32.44 29.264 53.958-.001 27.144-17.556 51.761-43.683 61.257z"/><path d="m450.979 244.277h.009c4.184 0 7.578-3.326 7.583-7.433l.08-63.682c14.876-6.685 27.604-17.114 37.026-30.393 10.679-15.049 16.323-32.726 16.323-51.122 0-49.436-41.081-89.655-91.576-89.655-50.48 0-91.548 40.219-91.548 89.655 0 18.4 5.64 36.077 16.311 51.12 9.419 13.28 22.148 23.709 37.031 30.393v210.778c-19.74 12.615-31.828 34.253-31.828 57.485 0 37.819 31.417 68.588 70.033 68.588 39.441 0 70.032-36.87 70.032-68.588 0-32.46-16.283-47.791-31.882-57.191l.083-113.417c.003-4.11-3.39-7.444-7.578-7.447-.002 0-.003 0-.005 0-4.186 0-7.58 3.329-7.583 7.437l-.086 117.68c-.002 2.689 1.475 5.171 3.863 6.49 14.554 8.042 28.022 19.235 28.022 46.449 0 24.325-24.473 53.704-54.865 53.704-30.254 0-54.866-24.092-54.866-53.704 0-19.346 10.716-37.284 27.965-46.815 2.387-1.318 3.863-3.797 3.863-6.484v-219.89c0-3.065-1.915-5.816-4.823-6.932-29.475-11.299-48.519-38.641-48.519-69.656 0-41.229 34.265-74.771 76.381-74.771 42.133 0 76.409 33.542 76.409 74.771 0 31.005-19.045 58.346-48.521 69.657-2.905 1.114-4.818 3.861-4.822 6.921l-.086 68.6c-.005 4.111 3.386 7.446 7.574 7.452z"/><path d="m238.075 435.197c4.189 0 7.583-3.332 7.583-7.442v-75.519c0-4.11-3.395-7.442-7.583-7.442-4.189 0-7.583 3.332-7.583 7.442v75.519c0 4.11 3.395 7.442 7.583 7.442z"/><path d="m273.925 435.197c4.189 0 7.583-3.332 7.583-7.442v-75.519c0-4.11-3.395-7.442-7.583-7.442-4.189 0-7.583 3.332-7.583 7.442v75.519c-.001 4.11 3.394 7.442 7.583 7.442z"/><path d="m314.484 283.637c0-10.431-8.66-18.917-19.303-18.917h-10.657v-162.556c9.246-5.797 14.995-15.851 14.995-26.802v-59.965c0-7.391-6.134-13.405-13.673-13.405h-59.72c-7.539 0-13.673 6.013-13.673 13.405v59.965c0 10.939 5.748 20.991 14.994 26.797v162.561h-10.628c-10.643 0-19.303 8.486-19.303 18.917 0 0-.022 175.398-.04 176.202-.085 3.507-.165 6.82 1.365 11.548l9.032 28.223c3.065 9.389 9.808 10.403 12.565 10.403h71.096c2.767 0 9.532-1.016 12.578-10.444l9.012-28.16c1.546-4.778 1.473-8.116 1.396-11.649-.017-.781-.036-176.123-.036-176.123zm-86.865-266.761h56.733v17.209h-56.733zm10.447 74.027c-6.346-2.721-10.447-8.822-10.447-15.541v-26.393h56.733v26.394c0 6.728-4.098 12.827-10.44 15.538-2.766 1.182-4.555 3.861-4.555 6.823v166.996h-26.743v-166.997c0-2.958-1.786-5.635-4.548-6.82zm51.581 404.187c-.004.013-.008.026-.013.039h-67.298c-.002-.006-.005-.013-.007-.019l-7.616-23.799h82.544zm9.67-38.662h-86.635v-132.864h86.635zm0-147.747h-86.635v-25.044c0-2.224 1.855-4.033 4.136-4.033h18.21.001 41.91.001 18.24c2.242 0 4.136 1.847 4.136 4.033v25.044z"/><path d="m465.603 122.889c3.623-1.948 5.132-4.517 5.043-8.588-.004-.198-.01-.433-.01-.716 0 0 .006-44.394.01-44.592.09-4.106-1.438-6.679-5.106-8.604-.182-.095-39.888-22.541-40.062-22.646-3.496-2.111-6.615-2.11-10.109.001-.176.106-39.87 22.545-40.05 22.64-3.673 1.935-5.195 4.503-5.09 8.585.005.202.005 45.153 0 45.354-.104 4.047 1.399 6.61 5.028 8.57.181.097 40 22.606 40.175 22.711 1.75 1.033 3.371 1.55 4.991 1.55 1.621 0 3.242-.516 4.991-1.549.176-.104 39.523-22.351 39.523-22.351.263-.149.483-.267.666-.365zm-10.134-11.457-35.045 19.812-35.017-19.795v-39.574l35.017-19.795 35.045 19.811z"/><path d="m389.544 441.425c0 16.681 13.853 30.252 30.88 30.252s30.88-13.571 30.88-30.252-13.853-30.252-30.88-30.252-30.88 13.571-30.88 30.252zm46.593 0c0 8.474-7.049 15.369-15.713 15.369s-15.713-6.894-15.713-15.369 7.049-15.369 15.713-15.369 15.713 6.894 15.713 15.369z"/></g></g></svg>